<svg xmlns="http://www.w3.org/2000/svg" width="267.656" height="64.453" viewBox="0 0 267.656 64.453"><path d="M34.71,9.973q10.777,1.347,15.44,5.855a14.41,14.41,0,0,1,4.663,10.725,14.375,14.375,0,0,1-2.85,8.808,18.641,18.641,0,0,1-8.238,6.01A33.942,33.942,0,0,1,30.98,43.546q-2.591,0-4.456-.1-6.425-.207-12.331-.207-8.5,0-12.849.311V41.474a20.641,20.641,0,0,0,5.44-.829,3.726,3.726,0,0,0,2.331-2.383,18.713,18.713,0,0,0,.622-5.7V-8.472a18.713,18.713,0,0,0-.622-5.7,3.726,3.726,0,0,0-2.331-2.383,20.642,20.642,0,0,0-5.44-.829v-2.072q4.352.311,12.642.311l10.569-.1q1.762-.1,4.041-.1,10.051,0,15.44,3.886a12.113,12.113,0,0,1,5.388,10.31A13.007,13.007,0,0,1,45.9,3.755Q42.378,7.693,34.71,9.765Zm-8.7-27.356a9.434,9.434,0,0,0-4.2.725,3.907,3.907,0,0,0-1.917,2.591,22.45,22.45,0,0,0-.518,5.6V9.765h5.906q7.979,0,11.088-3.627T39.477-4.016q0-6.735-3.212-10.051T26.006-17.384Zm.1,58.547q9.43,0,13.885-3.782t4.456-11.243q0-7.254-4.145-10.932T27.042,11.527H19.374V32.562a21.154,21.154,0,0,0,.518,5.492,3.681,3.681,0,0,0,1.917,2.435A10.4,10.4,0,0,0,26.11,41.163Zm104.658-1.969a14.729,14.729,0,0,1-4.508,4.3A11.691,11.691,0,0,1,120.2,45q-8.7,0-10.673-7.875l-3.212-12.953q-1.451-5.8-4.3-7.772t-8.445-1.969H87.661V32.562a18.713,18.713,0,0,0,.622,5.7,3.726,3.726,0,0,0,2.332,2.383,20.641,20.641,0,0,0,5.44.829v2.072q-4.767-.311-13.16-.311-8.912,0-13.264.311V41.474a20.641,20.641,0,0,0,5.44-.829A3.726,3.726,0,0,0,77.4,38.262a18.713,18.713,0,0,0,.622-5.7V-8.472a18.713,18.713,0,0,0-.622-5.7,3.726,3.726,0,0,0-2.331-2.383,20.642,20.642,0,0,0-5.44-.829v-2.072q4.352.311,12.642.311l10.569-.1q1.762-.1,4.041-.1,11.606,0,17.771,4.352T120.82-3.705A15.477,15.477,0,0,1,116,7.279q-4.818,4.974-15.8,6.321,2.072.207,3.523.414a18.548,18.548,0,0,1,8.7,3.316q3.212,2.487,4.559,7.979l2.28,9.43a16.874,16.874,0,0,0,1.813,5.129,2.941,2.941,0,0,0,2.539,1.5q2.591,0,5.7-3.523ZM94.293-17.384a9.434,9.434,0,0,0-4.2.725,3.907,3.907,0,0,0-1.917,2.591,22.449,22.449,0,0,0-.518,5.6V12.356H94.6q9.119,0,12.486-3.886t3.368-11.036q0-7.461-3.782-11.139T94.293-17.384Zm97.612,48.7a117.2,117.2,0,0,0,.725,12.227q-6.735-.311-22.693-.311-19.17,0-29.014.311V41.474a20.641,20.641,0,0,0,5.44-.829,3.726,3.726,0,0,0,2.331-2.383,18.713,18.713,0,0,0,.622-5.7V-8.472a18.713,18.713,0,0,0-.622-5.7,3.726,3.726,0,0,0-2.331-2.383,20.642,20.642,0,0,0-5.44-.829v-2.072q9.844.311,29.014.311,14.507,0,20.621-.311a97.493,97.493,0,0,0-.725,11.191,52.143,52.143,0,0,0,.311,6.425H187.76q-.725-8.5-3.575-11.865t-9.274-3.368h-7.564a18.737,18.737,0,0,0-5.44.57,3.573,3.573,0,0,0-2.331,2.331,18.713,18.713,0,0,0-.622,5.7V10.8h8.6a7,7,0,0,0,5.077-1.71,8.815,8.815,0,0,0,2.383-3.73,40.586,40.586,0,0,0,1.14-5.129h2.383q-.311,3.523-.311,7.668v3.938q0,4.041.622,11.606h-2.383a19.123,19.123,0,0,0-2.383-7.772q-1.762-2.8-6.528-2.8h-8.6V32.562a18.713,18.713,0,0,0,.622,5.7,3.573,3.573,0,0,0,2.331,2.331,18.737,18.737,0,0,0,5.44.57h7.564a17.023,17.023,0,0,0,8.186-1.658,10.483,10.483,0,0,0,4.559-5.337,36.069,36.069,0,0,0,2.176-10.31h2.383A70.757,70.757,0,0,0,191.905,31.319Zm70.152-50.464A61.093,61.093,0,0,0,269-19.456v2.072a8.571,8.571,0,0,0-4.663,2.85A33.05,33.05,0,0,0,260.3-7.229L237.6,44.064h-1.658L211.7-10.752q-2.8-6.425-7.15-6.632v-2.072q4.249.311,11.088.311,8.911,0,13.264-.311v2.072a16.564,16.564,0,0,0-5.647,1.036,2.863,2.863,0,0,0-1.813,2.8,13.288,13.288,0,0,0,1.451,4.87l17.823,40.205,15.44-34.4q2.591-5.6,2.591-8.808a4.61,4.61,0,0,0-2.021-4.2,12.849,12.849,0,0,0-6.166-1.5v-2.072Q253.664-19.145,262.057-19.145Z" transform="translate(-1.344 19.456)" fill="#fff"/></svg>